<?xml version="1.0" encoding="utf-8"?>
<!-- Generator: Adobe Illustrator 28.3.0, SVG Export Plug-In . SVG Version: 6.00 Build 0)  -->
<svg version="1.1" id="Layer_1" xmlns="http://www.w3.org/2000/svg" xmlns:xlink="http://www.w3.org/1999/xlink" x="0px" y="0px"
	 viewBox="0 0 624.7 92.6" style="enable-background:new 0 0 624.7 92.6;" xml:space="preserve">
<path d="M282.8,51.3v37.5h-6.5V67.4l-12.8,13.2l-12.8-13.1v21.3h-6.5V51.3l19.2,20L282.8,51.3L282.8,51.3z M537.4,81.1h-15l-3.5,7.7
	h-6.5l17.5-37.5l17.5,37.5h-6.5L537.4,81.1L537.4,81.1z M525.1,75.4h9.7l-4.8-10.5L525.1,75.4L525.1,75.4z M318.2,81.1h-15l-3.5,7.7
	h-6.5l17.5-37.5l17.5,37.5h-6.5L318.2,81.1L318.2,81.1z M305.9,75.4h9.7l-4.8-10.5L305.9,75.4L305.9,75.4z M494.6,52.9v23.5
	l-24.5-25.1v37.5h6V66.5l24.5,23.8V52.9L494.6,52.9L494.6,52.9z M354.9,83.3c-7.4,0-12.7-5.3-12.7-12.5s5.2-12.5,12.3-12.5
	c3.2,0,6.6,1.1,9.1,3l1.4,1v-7.2l-0.5-0.3c-2.9-1.7-6.4-2.5-10-2.5c-10.8,0-18.6,7.8-18.6,18.5s7.9,18.4,18.7,18.4
	c3.9,0,7.7-1,10.5-2.8l0.4-0.3v-7.3l-1.5,1.2C361.5,82.2,358.3,83.3,354.9,83.3L354.9,83.3z M410.9,70.7c0,6-2.6,11.3-7.2,14.5
	c-3.5,2.5-8,3.6-14.5,3.6h-9.1V52.9h10.3c5.2,0,9.2,0.9,12.5,2.9l0,0C408,58.9,410.9,64.3,410.9,70.7L410.9,70.7z M404.7,70.8
	c0-4.2-1.8-7.8-5.1-9.9c-2.9-1.9-6.6-2.2-9.8-2.2h-3.5v24.2h3.6c4.4,0,7.3-0.6,9.6-2.1l0,0C402.8,78.8,404.7,75,404.7,70.8
	L404.7,70.8z M457.8,70.8c0,10.5-7.8,18.5-18.2,18.5s-18.2-7.9-18.2-18.4s7.8-18.5,18.2-18.5S457.8,60.3,457.8,70.8z M451.5,70.8
	c0-7.1-5.1-12.5-12-12.5s-12,5.4-12,12.5s5.1,12.5,12,12.5S451.5,78,451.5,70.8z M565.4,52.9h-6.2v35.9h22.4v-5.8h-16.1L565.4,52.9
	L565.4,52.9z M624.1,70.7c0,6-2.6,11.3-7.2,14.5c-3.5,2.5-8,3.6-14.5,3.6h-9.1V52.9h10.3c5.2,0,9.2,0.9,12.5,2.9l0,0
	C621.2,58.9,624.1,64.3,624.1,70.7L624.1,70.7z M617.9,70.8c0-4.2-1.8-7.8-5.1-9.9c-2.9-1.9-6.6-2.2-9.8-2.2h-3.5v24.2h3.6
	c4.4,0,7.3-0.6,9.6-2.1l0,0C616,78.8,617.9,75,617.9,70.8L617.9,70.8z M302.9,21.6l11.1,15.3h-7.6L296,22.3h-4.4v14.6h-6.2V1.1h10.1
	c3.5,0,7,0.1,10,1.8c3.3,1.8,5.2,4.9,5.2,8.7s-1.8,6.9-4.8,8.8C304.9,20.9,304,21.3,302.9,21.6L302.9,21.6z M291.6,16.9h4.9
	c3,0,4.9-0.4,6.1-1.4c1.1-0.8,1.7-2,1.7-3.5c0-1.8-0.8-3.2-2.3-4.1c-1.6-0.9-3.6-1-6.9-1h-3.5V16.9z M359.1,19
	c0,10.5-7.8,18.5-18.2,18.5s-18.2-7.9-18.2-18.5s7.8-18.5,18.2-18.5S359.1,8.5,359.1,19z M352.9,19c0-7.1-5.1-12.5-12-12.5
	s-12,5.4-12,12.5s5.1,12.5,12,12.5S352.9,26.1,352.9,19z M406.5,19c0,10.5-7.8,18.5-18.2,18.5s-18.2-7.9-18.2-18.5
	s7.8-18.5,18.2-18.5S406.5,8.5,406.5,19z M400.2,19c0-7.1-5.1-12.5-12-12.5s-12,5.4-12,12.5s5.1,12.5,12,12.5S400.2,26.1,400.2,19z
	 M447.1,1.1h-8l-13.7,14.3V1.1h-6.2v35.9h6.2V20.6l14.7,16.3h8.2l-17.4-19.1L447.1,1.1L447.1,1.1z M471.4,15.9L471.4,15.9
	c-0.4-0.1-0.7-0.2-1-0.3c-4.1-1.1-6.4-1.9-6.4-5c0-3.7,3.5-4.2,5.6-4.2c2.5,0,6.2,0.8,9.4,3l1.4,1V3.5l-0.4-0.3
	c-2.6-1.7-6.5-2.7-10.3-2.7c-7.4,0-11.9,4-11.9,10.4s4.9,8.9,10.1,10.4l1,0.3c4.4,1.2,6.8,2,6.8,5.3c0,4.2-4.2,4.7-6,4.7
	c-2.6,0-6.6-0.9-9.8-3.3l-1.4-1.1v7.2l0.4,0.3c2.9,1.7,7,2.8,10.7,2.8c7.5,0,12.3-4.2,12.3-10.8C481.9,19.5,476.5,17.4,471.4,15.9
	L471.4,15.9z M257.2,36.9c9.2,0,13.9-3.5,13.9-10.5c0-3.6-1.7-6.6-4.6-8l-0.8-0.4l0.7-0.5c2.1-1.6,3.2-4.1,3.2-7
	c0-2.4-0.8-4.5-2.3-6.1c-2.7-2.9-6.7-3.3-10.2-3.3h-12.9v35.9L257.2,36.9L257.2,36.9z M250.2,21h9.6c3,0,5,2,5,5s-1.9,5-5,5h-9.1
	l-0.5,0L250.2,21L250.2,21z M250.2,6.5h9c2,0,3.5,0.9,4.1,2.5c0.2,0.5,0.3,1.1,0.3,1.8c0,2.7-1.7,4.4-4.3,4.4h-9.1L250.2,6.5
	L250.2,6.5z M148.3,46.2L103.1,0.1v91.7l16.4-16.3V40.3l28.8,29.4l28.8-29.4v48.1h16.4V0.1L148.3,46.2L148.3,46.2z M75.6,42
	c5.2-4.1,8.2-10.4,8.2-17.7c0-6.1-2-11.4-5.7-15.3c-6.5-6.9-15.6-8.2-25.2-8.2H0v87.6h52.9c14.9,0,34.3-4,34.3-26.2
	C87.2,53.2,82.8,45.6,75.6,42z M16.3,16.4h41c4.3,0,7.3,1.8,8.5,5.1l0,0c0.4,1.1,0.6,2.4,0.6,3.8c0,5.7-3.4,9.2-8.8,9.2H16.3
	C16.3,34.5,16.3,16.4,16.3,16.4z M58.9,71.9H16.3V50.8h42.6c6.5,0,10.6,4,10.6,10.5S65.5,71.9,58.9,71.9z"/>
</svg>
